<svg width="20" height="20" viewBox="0 0 20 20" fill="none" xmlns="http://www.w3.org/2000/svg">
<path d="M3.33334 11.6667C3.17564 11.6672 3.02103 11.623 2.88746 11.5391C2.7539 11.4553 2.64687 11.3353 2.5788 11.193C2.51073 11.0508 2.48441 10.8921 2.50292 10.7355C2.52143 10.5789 2.58399 10.4308 2.68334 10.3083L10.9333 1.80833C10.9952 1.73689 11.0796 1.68862 11.1725 1.67144C11.2654 1.65425 11.3614 1.66917 11.4448 1.71375C11.5281 1.75832 11.5938 1.82991 11.6311 1.91675C11.6684 2.00359 11.6751 2.10053 11.65 2.19166L10.05 7.20833C10.0028 7.3346 9.98698 7.47043 10.0038 7.60417C10.0207 7.7379 10.0697 7.86556 10.1467 7.97618C10.2238 8.0868 10.3265 8.17709 10.4461 8.23929C10.5657 8.3015 10.6985 8.33377 10.8333 8.33333H16.6667C16.8244 8.33279 16.979 8.37701 17.1125 8.46084C17.2461 8.54468 17.3531 8.6647 17.4212 8.80695C17.4893 8.94919 17.5156 9.10784 17.4971 9.26444C17.4786 9.42105 17.416 9.56919 17.3167 9.69166L9.06667 18.1917C9.00479 18.2631 8.92045 18.3114 8.82752 18.3285C8.73458 18.3457 8.63857 18.3308 8.55523 18.2862C8.47189 18.2417 8.40618 18.1701 8.36889 18.0832C8.3316 17.9964 8.32494 17.8995 8.35 17.8083L9.95 12.7917C9.99718 12.6654 10.013 12.5296 9.99618 12.3958C9.97933 12.2621 9.93029 12.1344 9.85326 12.0238C9.77624 11.9132 9.67353 11.8229 9.55394 11.7607C9.43436 11.6985 9.30147 11.6662 9.16667 11.6667H3.33334Z" stroke="white" stroke-width="1.66667" stroke-linecap="round" stroke-linejoin="round"/>
</svg>
