<svg width="32" height="32" viewBox="0 0 32 32" fill="none" xmlns="http://www.w3.org/2000/svg">
<path d="M19.3813 28.9147C19.4319 29.0409 19.52 29.1486 19.6336 29.2234C19.7473 29.2981 19.8811 29.3363 20.0171 29.3328C20.153 29.3294 20.2847 29.2844 20.3944 29.2039C20.5041 29.1234 20.5865 29.0113 20.6306 28.8827L29.2973 3.54933C29.3399 3.43118 29.3481 3.30333 29.3208 3.18073C29.2934 3.05813 29.2317 2.94585 29.1429 2.85703C29.0541 2.76821 28.9418 2.70652 28.8192 2.67918C28.6966 2.65184 28.5688 2.65999 28.4506 2.70266L3.11728 11.3693C2.98861 11.4135 2.87651 11.4959 2.79604 11.6056C2.71557 11.7152 2.67057 11.8469 2.66709 11.9829C2.66361 12.1189 2.7018 12.2526 2.77655 12.3663C2.85131 12.4799 2.95903 12.568 3.08528 12.6187L13.6586 16.8587C13.9929 16.9925 14.2965 17.1926 14.5514 17.447C14.8062 17.7013 15.0069 18.0047 15.1413 18.3387L19.3813 28.9147Z" stroke="#FF5C3D" stroke-width="2.66667" stroke-linecap="round" stroke-linejoin="round"/>
<path d="M29.1387 2.86267L14.552 17.448" stroke="#FF5C3D" stroke-width="2.66667" stroke-linecap="round" stroke-linejoin="round"/>
</svg>
