<svg width="14" height="14" viewBox="0 0 14 14" fill="none" xmlns="http://www.w3.org/2000/svg">
<g clip-path="url(#clip0_8213_458)">
<path d="M0 7.00008H4.66667M4.66667 7.00008C4.66667 6.38124 4.9125 5.78775 5.35008 5.35017C5.78767 4.91258 6.38116 4.66675 7 4.66675C7.61884 4.66675 8.21233 4.91258 8.64992 5.35017C9.0875 5.78775 9.33333 6.38124 9.33333 7.00008M4.66667 7.00008C4.66667 7.61892 4.9125 8.21241 5.35008 8.65C5.78767 9.08758 6.38116 9.33342 7 9.33342C7.61884 9.33342 8.21233 9.08758 8.64992 8.65C9.0875 8.21241 9.33333 7.61892 9.33333 7.00008M9.33333 7.00008H14" stroke="#3460DC" stroke-width="1.75"/>
</g>
<defs>
<clipPath id="clip0_8213_458">
<rect width="14" height="14" fill="white"/>
</clipPath>
</defs>
</svg>
