<svg width="20" height="20" viewBox="0 0 20 20" fill="none" xmlns="http://www.w3.org/2000/svg">
<g clip-path="url(#clip0_8213_74)">
<path d="M8.28083 12.9166C8.20644 12.6283 8.05612 12.3651 7.84552 12.1545C7.63491 11.9439 7.37173 11.7935 7.08333 11.7191L1.97083 10.4008C1.88361 10.3761 1.80684 10.3235 1.75218 10.2512C1.69751 10.1788 1.66794 10.0907 1.66794 9.99998C1.66794 9.90931 1.69751 9.82112 1.75218 9.74878C1.80684 9.67644 1.88361 9.62391 1.97083 9.59915L7.08333 8.27998C7.37162 8.20565 7.63474 8.05546 7.84534 7.84502C8.05593 7.63457 8.20631 7.37156 8.28083 7.08332L9.59917 1.97082C9.62367 1.88325 9.67615 1.8061 9.7486 1.75115C9.82105 1.69619 9.90948 1.66644 10.0004 1.66644C10.0913 1.66644 10.1798 1.69619 10.2522 1.75115C10.3247 1.8061 10.3772 1.88325 10.4017 1.97082L11.7192 7.08332C11.7936 7.37171 11.9439 7.6349 12.1545 7.8455C12.3651 8.0561 12.6283 8.20642 12.9167 8.28082L18.0292 9.59832C18.1171 9.62257 18.1946 9.67499 18.2499 9.74755C18.3051 9.8201 18.335 9.90878 18.335 9.99998C18.335 10.0912 18.3051 10.1799 18.2499 10.2524C18.1946 10.325 18.1171 10.3774 18.0292 10.4016L12.9167 11.7191C12.6283 11.7935 12.3651 11.9439 12.1545 12.1545C11.9439 12.3651 11.7936 12.6283 11.7192 12.9166L10.4008 18.0291C10.3763 18.1167 10.3238 18.1939 10.2514 18.2488C10.179 18.3038 10.0905 18.3335 9.99958 18.3335C9.90865 18.3335 9.82022 18.3038 9.74777 18.2488C9.67532 18.1939 9.62284 18.1167 9.59833 18.0291L8.28083 12.9166Z" stroke="white" stroke-width="1.66667" stroke-linecap="round" stroke-linejoin="round"/>
<path d="M16.6667 2.5V5.83333" stroke="white" stroke-width="1.66667" stroke-linecap="round" stroke-linejoin="round"/>
<path d="M18.3333 4.16669H15" stroke="white" stroke-width="1.66667" stroke-linecap="round" stroke-linejoin="round"/>
<path d="M3.33334 14.1667V15.8334" stroke="white" stroke-width="1.66667" stroke-linecap="round" stroke-linejoin="round"/>
<path d="M4.16667 15H2.5" stroke="white" stroke-width="1.66667" stroke-linecap="round" stroke-linejoin="round"/>
</g>
<defs>
<clipPath id="clip0_8213_74">
<rect width="20" height="20" fill="white"/>
</clipPath>
</defs>
</svg>
