<svg width="32" height="32" viewBox="0 0 32 32" fill="none" xmlns="http://www.w3.org/2000/svg">
<path d="M29.3333 16H21.3333L18.6667 20H13.3333L10.6667 16H2.66666" stroke="#2B7FFF" stroke-width="2.66667" stroke-linecap="round" stroke-linejoin="round"/>
<path d="M7.26666 6.81337L2.66666 16V24C2.66666 24.7073 2.94761 25.3856 3.4477 25.8857C3.9478 26.3858 4.62608 26.6667 5.33332 26.6667H26.6667C27.3739 26.6667 28.0522 26.3858 28.5523 25.8857C29.0524 25.3856 29.3333 24.7073 29.3333 24V16L24.7333 6.81337C24.5126 6.36909 24.1722 5.9952 23.7506 5.73375C23.329 5.47229 22.8428 5.33364 22.3467 5.33337H9.65332C9.15721 5.33364 8.67101 5.47229 8.24938 5.73375C7.82776 5.9952 7.48743 6.36909 7.26666 6.81337Z" stroke="#2B7FFF" stroke-width="2.66667" stroke-linecap="round" stroke-linejoin="round"/>
</svg>
