<svg width="32" height="32" viewBox="0 0 32 32" fill="none" xmlns="http://www.w3.org/2000/svg">
<path d="M7.99996 12H5.99996C5.1159 12 4.26806 11.6489 3.64294 11.0237C3.01782 10.3986 2.66663 9.55076 2.66663 8.66671C2.66663 7.78265 3.01782 6.93481 3.64294 6.30968C4.26806 5.68456 5.1159 5.33337 5.99996 5.33337H7.99996" stroke="#00B8DB" stroke-width="2.66667" stroke-linecap="round" stroke-linejoin="round"/>
<path d="M24 12H26C26.8841 12 27.7319 11.6489 28.357 11.0237C28.9821 10.3986 29.3333 9.55076 29.3333 8.66671C29.3333 7.78265 28.9821 6.93481 28.357 6.30968C27.7319 5.68456 26.8841 5.33337 26 5.33337H24" stroke="#00B8DB" stroke-width="2.66667" stroke-linecap="round" stroke-linejoin="round"/>
<path d="M5.33337 29.3334H26.6667" stroke="#00B8DB" stroke-width="2.66667" stroke-linecap="round" stroke-linejoin="round"/>
<path d="M13.3334 19.5466V22.6666C13.3334 23.4 12.7067 23.9733 12.04 24.28C10.4667 25 9.33337 26.9866 9.33337 29.3333" stroke="#00B8DB" stroke-width="2.66667" stroke-linecap="round" stroke-linejoin="round"/>
<path d="M18.6666 19.5466V22.6666C18.6666 23.4 19.2933 23.9733 19.96 24.28C21.5333 25 22.6666 26.9866 22.6666 29.3333" stroke="#00B8DB" stroke-width="2.66667" stroke-linecap="round" stroke-linejoin="round"/>
<path d="M24 2.66663H8V12C8 14.1217 8.84286 16.1565 10.3431 17.6568C11.8434 19.1571 13.8783 20 16 20C18.1217 20 20.1566 19.1571 21.6569 17.6568C23.1571 16.1565 24 14.1217 24 12V2.66663Z" stroke="#00B8DB" stroke-width="2.66667" stroke-linecap="round" stroke-linejoin="round"/>
</svg>
